<?xml version="1.0" standalone="no"?><!DOCTYPE svg PUBLIC "-//W3C//DTD SVG 1.1//EN" "http://www.w3.org/Graphics/SVG/1.1/DTD/svg11.dtd"><svg t="1487135544782" class="icon" style="" viewBox="0 0 1024 1024" version="1.1" xmlns="http://www.w3.org/2000/svg" p-id="3096" xmlns:xlink="http://www.w3.org/1999/xlink" width="32" height="32"><defs><style type="text/css"></style></defs><path d="M487.603 102 102 488.001 102 922l820-820L487.603 102zM357.173 607.805c-8.21-2.864-14.128-4.582-27.111-7.256l-153.31-30.738c-3.818-0.764-21.002-5.345-28.83-7.828 9.737 8.211 19.475 17.184 24.438 22.148l81.523 81.523c10.119 10.119 16.802 16.037 24.248 21.192l-17.756 17.755c-4.963-7.254-11.264-14.318-21.192-24.247L138.186 579.357c-8.783-8.783-14.893-14.129-22.91-19.855l20.047-20.047c6.108 2.673 12.791 4.391 26.92 7.445l150.637 29.975c5.346 1.146 20.429 4.773 33.22 8.4-16.037-14.51-24.819-22.528-26.538-24.246l-80.951-80.952c-9.354-9.355-15.654-14.892-23.482-20.429l17.756-17.755c5.728 8.019 10.691 13.746 20.428 23.483l101.762 101.762c9.547 9.545 15.656 14.892 22.911 19.855L357.173 607.805zM484.705 480.273l-55.94 55.939c-9.164 9.166-14.318 14.701-20.429 21.575-6.11-8.401-11.455-14.51-21.192-24.247L285.381 431.779c-8.209-8.209-13.746-12.982-23.292-20.237 7.063-6.3 12.409-11.264 21.575-20.429l54.412-54.413c8.4-8.4 14.51-15.273 20.047-22.72l16.037 16.038c-7.637 5.728-13.174 10.5-22.72 20.046l-58.805 58.805 48.876 48.876 50.213-50.213c8.4-8.4 13.746-14.51 20.047-22.72l16.037 16.038c-7.445 5.537-12.791 10.119-22.719 20.047l-50.213 50.213 56.131 56.13 60.522-60.522c8.782-8.782 13.746-14.51 19.856-22.529l16.037 16.037C500.36 465.382 494.823 470.155 484.705 480.273zM624.455 303.866l-107.68-57.277c-10.692-5.728-18.901-10.501-27.494-16.42 0.955 1.719 1.719 3.246 2.482 4.01 3.628 6.3 11.074 18.709 13.748 23.674l57.466 107.49c7.064 13.555 9.547 17.564 13.365 23.292l-14.701 14.701c-4.01-2.864-4.01-2.864-24.057-13.747l-134.6-74.269c-13.556-7.446-20.237-10.691-29.593-13.937l19.283-19.283c6.109 5.346 13.556 10.5 23.483 16.229l105.389 60.331c5.918 3.246 12.41 7.446 26.729 16.419-5.729-9.545-12.41-20.811-16.037-27.493l-58.231-109.398c-4.773-8.974-10.501-18.137-14.319-23.102l14.318-14.319c6.683 4.773 13.747 9.164 23.293 14.128l109.207 58.04c5.346 3.055 8.973 5.155 27.684 16.228l-16.801-27.11-59.949-105.007c-5.537-9.355-11.072-17.565-16.229-23.484l19.092-19.092c3.629 9.355 6.684 15.464 14.32 29.21l74.076 134.792c10.311 18.71 10.502 18.901 13.938 23.865l-14.891 14.892C643.166 314.175 634.574 309.021 624.455 303.866z" p-id="3097" fill="#e98f36"></path></svg>