<?xml version="1.0" standalone="no"?>
<!DOCTYPE svg PUBLIC "-//W3C//DTD SVG 20010904//EN"
 "http://www.w3.org/TR/2001/REC-SVG-20010904/DTD/svg10.dtd">
<svg version="1.0" xmlns="http://www.w3.org/2000/svg"
 width="558.000000pt" height="558.000000pt" viewBox="0 0 558.000000 558.000000"
 preserveAspectRatio="xMidYMid meet">
<metadata>
Created by potrace 1.11, written by Peter Selinger 2001-2013
</metadata>
<g transform="translate(0.000000,558.000000) scale(0.100000,-0.100000)"
fill="#000000" stroke="none">
<path d="M1922 4515 c-4 -5 -12 -19 -18 -30 -29 -54 -382 -690 -419 -755 -23
-41 -57 -102 -75 -135 -84 -155 -103 -191 -110 -200 -4 -5 -21 -35 -37 -65
-59 -108 -97 -177 -166 -300 -69 -124 -93 -166 -143 -257 -14 -27 -60 -109
-102 -183 -135 -241 -153 -275 -165 -302 -6 -16 -15 -28 -19 -28 -4 0 -8 -4
-8 -9 0 -4 -18 -41 -41 -82 -22 -41 -57 -103 -76 -139 -20 -36 -39 -69 -43
-75 -4 -5 -24 -41 -45 -80 -21 -38 -130 -235 -241 -437 -112 -201 -204 -370
-204 -375 0 -4 176 -8 391 -8 l390 0 32 57 c87 155 193 343 350 618 31 55 101
180 129 230 14 25 34 61 45 80 47 80 275 484 302 532 16 29 75 134 131 233
160 281 169 297 192 343 l22 42 647 0 647 0 56 103 c31 56 61 109 66 117 6 8
13 22 17 30 4 8 37 69 73 135 113 202 121 218 163 295 22 41 51 92 64 112 13
21 23 40 23 42 0 3 59 111 130 240 72 130 133 241 135 248 7 17 -2083 19
-2093 3z"/>
<path d="M4800 4522 c-8 -1 -32 -33 -52 -70 -21 -37 -51 -89 -66 -117 -89
-157 -122 -214 -142 -250 -12 -22 -49 -86 -81 -142 -33 -56 -59 -104 -59 -107
0 -2 -13 -26 -29 -53 -25 -42 -138 -240 -283 -498 -25 -44 -56 -98 -68 -120
-12 -22 -52 -92 -88 -155 -36 -63 -84 -149 -107 -190 -23 -41 -52 -91 -63
-110 -11 -19 -32 -55 -45 -80 -14 -25 -49 -88 -79 -140 l-54 -95 -646 -3 -647
-2 -29 -53 c-35 -62 -73 -131 -115 -207 -37 -69 -351 -639 -385 -700 -55 -98
-202 -369 -202 -372 0 -3 2077 -2 2091 1 4 0 16 18 27 39 10 20 75 138 144
262 117 210 154 277 216 390 14 25 28 50 32 55 4 6 26 46 50 90 23 44 71 130
106 192 35 61 82 146 104 188 23 43 52 95 66 116 13 21 24 40 24 43 0 2 20 39
44 82 61 111 75 136 243 439 83 149 165 297 183 330 18 33 36 65 40 70 4 6 26
46 50 90 24 44 53 96 64 117 26 45 162 292 206 373 18 33 36 65 40 70 4 6 23
39 42 75 20 36 44 81 55 100 31 55 128 230 157 283 14 26 26 51 26 55 0 7
-737 11 -770 4z"/>
</g>
</svg>
